<?xml version="1.0" encoding="utf-8"?>
<!-- Generator: Adobe Illustrator 24.1.0, SVG Export Plug-In . SVG Version: 6.00 Build 0)  -->
<svg version="1.1" id="Layer_4" xmlns="http://www.w3.org/2000/svg" xmlns:xlink="http://www.w3.org/1999/xlink" x="0px" y="0px"
	 viewBox="0 0 200 200" style="enable-background:new 0 0 200 200;" xml:space="preserve">
<style type="text/css">
	.st0{fill:#FFFFFF;}
	.st1{fill:#EAC0A7;}
	.st2{fill:#F2D7BC;}
	.st3{fill:#2F343A;}
</style>
<rect class="st0" width="200" height="200"/>
<path class="st1" d="M100,36.1c21.2,0,54.7,12,54.7,68.5c0,32.6-10.6,53.9-15.3,59.8c-4.3,5.4-28.2,17-39.4,17V36.1z"/>
<path class="st1" d="M165.2,118c0.9-9-3.4-17-9.6-17.9s-12,5.8-13,14.8s3.4,17,9.6,17.9S164.3,127,165.2,118z"/>
<path class="st2" d="M100,36.1c-21.2,0-54.7,12-54.7,68.5c0,32.6,10.6,53.9,15.3,59.8c4.3,5.4,28.2,17,39.4,17L100,36.1L100,36.1z"
	/>
<path class="st2" d="M34.8,118c-0.9-9,3.4-17,9.6-17.9s12,5.8,13,14.8s-3.4,17-9.6,17.9S35.7,127,34.8,118z"/>
<path class="st3" d="M52.6,119h3.8c0,0-2.3-14.7,4.4-19.4v-9.5c0,0-2.6-0.3-2.6-11.5S71.5,59.5,100,59.5V18.6c0,0-56.3,1.2-56.3,42
	v39.5c0,0,4.1-0.7,7,1.7C53.9,104.6,52.6,119,52.6,119z"/>
<path class="st3" d="M147.4,119h-3.8c0,0,2.3-14.7-4.4-19.4v-9.5c0,0,2.6-0.3,2.6-11.5S128.5,59.5,100,59.5V18.6
	c0,0,56.3-1.3,56.3,39.6v42c0,0-4.1-0.7-7,1.7C146.1,104.6,147.4,119,147.4,119z"/>
<path class="st0" d="M100,157.1c9.9,0,17.9-3.3,17.9-7.3H82.1C82.1,153.8,90.1,157.1,100,157.1z"/>
<image style="overflow:visible;" width="1079" height="1079" xlink:href="../../121676614_1450671618455506_6699450582556150102_o.jpg"  transform="matrix(0.19 0 0 0.1855 -2.5 0.9325)">
</image>
</svg>
