<?xml version="1.0" standalone="no"?>
<!DOCTYPE svg PUBLIC "-//W3C//DTD SVG 20010904//EN"
 "http://www.w3.org/TR/2001/REC-SVG-20010904/DTD/svg10.dtd">
<svg version="1.0" xmlns="http://www.w3.org/2000/svg"
 width="984.000000pt" height="514.000000pt" viewBox="0 0 984.000000 514.000000"
 preserveAspectRatio="xMidYMid meet">

<g transform="translate(0.000000,514.000000) scale(0.100000,-0.100000)"
fill="#000000" stroke="none">
<path d="M1989 2985 c-112 -36 -204 -134 -234 -250 -21 -82 -21 -339 0 -420
28 -107 87 -179 189 -233 46 -25 61 -27 161 -27 94 0 117 3 156 23 70 34 125
87 156 150 27 54 28 64 28 197 0 77 -3 148 -7 158 -7 16 -24 17 -200 15 l-193
-3 -3 -77 -3 -78 121 0 120 0 0 -35 c0 -43 -23 -101 -53 -134 -29 -32 -94 -61
-136 -61 -50 0 -118 36 -146 78 -24 36 -25 42 -25 213 0 164 2 179 23 220 14
27 42 57 73 77 44 31 55 34 106 30 85 -6 129 -47 162 -150 4 -15 18 -18 80
-18 87 0 92 6 70 82 -31 106 -100 185 -199 229 -62 28 -183 34 -246 14z m256
-44 c90 -45 153 -127 170 -223 l7 -38 -59 0 -60 0 -12 41 c-26 86 -128 149
-221 136 -61 -8 -125 -51 -157 -105 -26 -43 -28 -56 -31 -179 -6 -179 2 -232
41 -290 120 -176 377 -83 377 136 l0 41 -120 0 -120 0 0 60 0 60 181 0 181 0
-4 -132 c-3 -109 -7 -141 -25 -180 -30 -66 -96 -133 -162 -165 -48 -24 -68
-28 -141 -27 -67 0 -95 5 -131 23 -75 36 -125 86 -161 159 l-33 67 0 200 0
200 33 67 c84 170 274 234 447 149z"/>
<path d="M6037 2986 c-51 -19 -67 -33 -91 -86 -20 -43 -21 -64 -24 -420 -2
-206 -1 -384 3 -397 5 -21 11 -23 80 -23 48 0 77 4 82 13 4 6 8 170 8 364 0
327 1 353 18 370 18 17 19 17 32 0 7 -10 20 -57 29 -105 62 -345 87 -481 96
-511 26 -92 95 -141 196 -141 85 1 135 26 163 82 20 43 21 55 20 419 -1 206
-4 388 -8 404 l-6 30 -75 0 -75 0 -5 -380 c-5 -350 -6 -380 -22 -383 -26 -5
-33 20 -78 278 -23 129 -48 264 -56 300 -35 153 -157 232 -287 186z"/>
<path d="M2786 2970 c-57 -22 -118 -78 -149 -135 -21 -38 -22 -52 -22 -310 0
-301 0 -301 74 -378 72 -76 92 -82 312 -85 231 -4 225 -6 212 90 l-8 63 -183
5 -184 5 -29 33 c-25 28 -29 40 -29 90 0 31 5 64 10 72 8 12 44 16 205 18 224
4 213 -2 198 102 l-8 55 -204 3 -203 2 4 65 c4 69 21 101 71 139 24 18 46 21
187 24 117 3 162 8 171 18 7 9 8 33 2 76 l-8 63 -185 2 c-163 2 -191 0 -234
-17z m404 -60 l0 -60 -167 0 c-150 0 -172 -2 -201 -20 -55 -34 -72 -73 -72
-167 l0 -83 210 0 210 0 0 -60 0 -60 -210 0 -210 0 0 -81 c0 -64 4 -89 20
-114 35 -57 67 -65 254 -65 l166 0 0 -61 0 -61 -187 4 c-208 3 -233 10 -301
79 -64 65 -67 79 -70 349 -3 275 1 300 66 372 69 77 104 86 320 87 l172 1 0
-60z"/>
<path d="M3536 2970 c-57 -22 -118 -78 -149 -135 -21 -38 -22 -52 -22 -310 0
-301 0 -301 74 -378 72 -76 92 -82 312 -85 231 -4 225 -6 212 90 l-8 63 -183
5 -184 5 -29 33 c-25 28 -29 40 -29 90 0 31 5 64 10 72 8 12 44 16 205 18 224
4 213 -2 198 102 l-8 55 -204 3 -203 2 4 65 c4 69 21 101 71 139 24 18 46 21
187 24 117 3 162 8 171 18 7 9 8 33 2 76 l-8 63 -185 2 c-163 2 -191 0 -234
-17z m404 -60 l0 -60 -167 0 c-150 0 -172 -2 -201 -20 -55 -34 -72 -73 -72
-167 l0 -83 210 0 210 0 0 -60 0 -60 -210 0 -210 0 0 -81 c0 -64 4 -89 20
-114 35 -57 67 -65 254 -65 l166 0 0 -61 0 -61 -187 4 c-208 3 -233 10 -301
79 -64 65 -67 79 -70 349 -3 275 1 300 66 372 69 77 104 86 320 87 l172 1 0
-60z"/>
<path d="M4132 2978 c-14 -14 -17 -884 -3 -906 5 -9 29 -12 82 -10 l74 3 5
178 c4 143 8 180 20 187 24 15 127 12 168 -6 20 -8 50 -27 65 -42 51 -48 61
-78 67 -202 l5 -115 80 0 80 0 -1 120 c0 100 -4 130 -22 176 -27 67 -86 138
-154 183 l-49 33 110 133 c100 122 126 166 114 194 -6 14 -98 86 -111 86 -5 0
-80 -85 -167 -190 -123 -148 -163 -190 -181 -190 l-24 0 0 164 c0 91 -4 176
-10 190 -9 24 -14 26 -73 26 -36 0 -68 -5 -75 -12z m128 -198 l0 -190 44 0 43
0 158 190 158 190 40 -33 c23 -19 42 -38 44 -43 2 -5 -55 -79 -125 -164 l-129
-155 56 -28 c73 -37 135 -98 169 -167 24 -49 27 -69 31 -177 l3 -123 -61 0
-61 0 0 93 c0 115 -10 152 -57 207 -54 63 -98 80 -215 80 l-98 0 0 -190 0
-190 -60 0 -60 0 0 445 0 445 60 0 60 0 0 -190z"/>
<path d="M5565 2978 c-3 -7 -4 -215 -3 -463 l3 -450 80 0 80 0 3 428 c1 236
-1 443 -6 460 -8 32 -9 32 -80 35 -52 2 -74 -1 -77 -10z"/>
<path d="M7424 2976 c-3 -7 -4 -159 -2 -337 5 -383 6 -388 102 -485 84 -84
147 -107 271 -102 110 5 170 32 238 108 75 83 77 98 76 459 -1 174 -4 327 -8
341 -7 24 -10 25 -81 25 l-75 0 -5 -325 c-5 -305 -6 -327 -26 -360 -38 -65
-115 -100 -190 -85 -50 9 -113 69 -124 120 -5 22 -10 167 -10 322 0 158 -4
293 -10 307 -9 25 -14 26 -80 26 -51 0 -72 -4 -76 -14z"/>
</g>
</svg>
